<svg xmlns="http://www.w3.org/2000/svg" viewBox="0 0 64 64"><path d="M50 31v-8.14A4 4 0 1 0 45.14 18H33v-5.74C33 8.19 26.85 5 19 5S5 8.19 5 12.26v25c0 3.9 5.64 7 13 7.23v4.61a4 4 0 1 0 4.86 4.9H39c.3 2.87 4.48 5 10 5 5.7 0 10-2.29 10-5.33V36.33c0-2.86-3.8-5.05-9-5.33Zm7 16.86a1.16 1.16 0 0 1 0 .27v.12a1.47 1.47 0 0 1-.06.15l-.08.15-.08.12-.12.16-.11.12-.14.15-.17.15-.13.11a8 8 0 0 1-2.46 1.19h-.05l-.59.17h-.11l-.58.13h-.2l-.54.09h-.34l-.45.05H47.39l-.45-.05h-.34l-.6.01h-.2l-.59-.13h-.11l-.6-.17a8 8 0 0 1-2.5-1.26l-.13-.11-.17-.15-.17-.13-.1-.12-.12-.16-.08-.12-.08-.15a1.49 1.49 0 0 1-.06-.15s0-.08 0-.12a1.16 1.16 0 0 1 0-.27v-2.53a14.21 14.21 0 0 0 8 2.06 14.21 14.21 0 0 0 8-2.06Zm0-8.29v2.51a1.16 1.16 0 0 1 0 .27v.12a1.46 1.46 0 0 1-.06.15l-.08.15-.08.12-.12.16-.11.12-.14.15-.17.15-.13.11a8 8 0 0 1-2.46 1.19h-.05l-.59.17h-.11l-.58.13h-.2l-.54.09h-.34l-.45.05H47.39l-.45-.05h-.34l-.6.01h-.2l-.62-.17h-.11l-.6-.17A8 8 0 0 1 42 43.61l-.13-.11-.17-.15-.15-.15-.1-.12-.12-.16-.08-.12-.08-.15a1.44 1.44 0 0 1-.06-.15s0-.08 0-.12a1.16 1.16 0 0 1 0-.27V39.6h.08a8.08 8.08 0 0 0 .74.46A15.74 15.74 0 0 0 49 41.67a15.74 15.74 0 0 0 7.18-1.56 8.06 8.06 0 0 0 .74-.46Zm0-3.27c0 .67-.64 1.4-1.76 2A13.71 13.71 0 0 1 49 39.67a13.71 13.71 0 0 1-6.24-1.32c-1.12-.6-1.76-1.34-1.76-2 0-1.59 3.42-3.35 8-3.35s8 1.76 8 3.33ZM49 17a2 2 0 1 1-2 2 2 2 0 0 1 2-2Zm-3.86 3A4 4 0 0 0 48 22.86V31c-5.2.25-9 2.45-9 5.31V52H22.86A4 4 0 0 0 20 49.14v-4.61c7.36-.26 13-3.34 13-7.23V20ZM26.78 32.89l-.8.29-.27.08-.69.2-.58.14-.47.11-1 .18h-.15a25.48 25.48 0 0 1-7.67 0H15l-1-.18-.47-.11-.53-.14-.69-.2-.31-.09-.81-.29h-.06c-2.32-.92-3.8-2.19-4.1-3.44a2 2 0 0 1-.03-.49v-4.53c.11.09.24.18.36.27a10.55 10.55 0 0 0 1.47 1 15.39 15.39 0 0 0 2.25 1l.86.27.25.08a25.21 25.21 0 0 0 6.81.89 25.21 25.21 0 0 0 6.81-.93l.19-.1.88-.28a15.39 15.39 0 0 0 2.25-1 10.29 10.29 0 0 0 1.87-1.2v4.53a2 2 0 0 1-.06.47c-.3 1.25-1.78 2.52-4.1 3.44ZM7.64 16.56l.26.19c.29.2.6.38.93.56A22.3 22.3 0 0 0 19 19.52a22.3 22.3 0 0 0 10.17-2.21c.33-.18.64-.37.93-.56l.27-.19c.19-.14.37-.27.54-.41l.09-.07v4.52a2 2 0 0 1-.06.47c-.3 1.25-1.78 2.52-4.1 3.44h-.06l-.8.29-.27.08-.69.2-.58.14-.47.11-1 .18h-.15a25.48 25.48 0 0 1-7.67 0H15l-1-.18-.47-.11-.53-.11-.69-.2-.31-.08-.81-.29h-.06c-2.32-.92-3.8-2.19-4.1-3.44a2 2 0 0 1-.03-.5v-4.53l.09.07c.17.14.36.28.55.42ZM19 7c7.07 0 12 2.77 12 5.26 0 1.16-1 2.33-2.78 3.29a20.27 20.27 0 0 1-9.22 2 20.27 20.27 0 0 1-9.22-2C8 14.58 7 13.41 7 12.26 7 9.77 11.93 7 19 7ZM7 37.3v-4.54c.11.09.24.18.36.27a10.55 10.55 0 0 0 1.47 1 15.39 15.39 0 0 0 2.25 1l.86.27.25.08a25.21 25.21 0 0 0 6.81.89 25.21 25.21 0 0 0 6.81-.89l.23-.07.88-.28a15.39 15.39 0 0 0 2.25-1A10.29 10.29 0 0 0 31 32.76v4.54c0 2.49-4.93 5.26-12 5.26S7 39.78 7 37.3ZM19 55a2 2 0 1 1 2-2 2 2 0 0 1-2 2Zm30 2c-4.58 0-8-1.76-8-3.33v-2.51a14.21 14.21 0 0 0 8 2.06 14.21 14.21 0 0 0 8-2.06v2.51c0 1.57-3.42 3.33-8 3.33Z" data-name="database system"/></svg>